<svg width="34" height="30" viewBox="0 0 34 30" fill="none" xmlns="http://www.w3.org/2000/svg">
<path d="M22 29C22.994 29 23.8 28.1941 23.8 27.2C23.8 26.2059 22.994 25.4 22 25.4C21.0059 25.4 20.2 26.2059 20.2 27.2C20.2 28.1941 21.0059 29 22 29Z" fill="black" stroke="black" stroke-width="2" stroke-linecap="round" stroke-linejoin="round"/>
<path d="M9.99995 29C10.994 29 11.8 28.1941 11.8 27.2C11.8 26.2059 10.994 25.4 9.99995 25.4C9.00584 25.4 8.19995 26.2059 8.19995 27.2C8.19995 28.1941 9.00584 29 9.99995 29Z" fill="black" stroke="black" stroke-width="2" stroke-linecap="round" stroke-linejoin="round"/>
<path d="M4.6 7.4H25L22.6 20.6H7L4.6 7.4ZM4.6 7.4C4.4 6.6 3.4 5 1 5" stroke="black" stroke-width="2" stroke-linecap="round" stroke-linejoin="round"/>
<path d="M22.6 20.6H6.99998H4.8769C2.73573 20.6 1.59998 21.5374 1.59998 23C1.59998 24.4626 2.73573 25.4 4.8769 25.4H22" stroke="black" stroke-width="2" stroke-linecap="round" stroke-linejoin="round"/>
<rect x="14" width="20" height="15" rx="7" fill="#333C35"/>
</svg>
